<svg width="960" height="640" viewBox="0 0 960 640" fill="none" xmlns="http://www.w3.org/2000/svg">
  <defs>
    <linearGradient id="sky" x1="0" y1="0" x2="0" y2="340" gradientUnits="userSpaceOnUse">
      <stop stop-color="#BEE6FF"/>
      <stop offset="1" stop-color="#E9F6FF"/>
    </linearGradient>
    <linearGradient id="ground" x1="0" y1="340" x2="0" y2="640" gradientUnits="userSpaceOnUse">
      <stop stop-color="#CFEAA8"/>
      <stop offset="1" stop-color="#A5D986"/>
    </linearGradient>
  </defs>
  <rect width="960" height="340" fill="url(#sky)"/>
  <rect y="340" width="960" height="300" fill="url(#ground)"/>
  <circle cx="780" cy="120" r="70" fill="#FFD774"/>
  <path d="M0 400C170 350 290 370 420 430C550 490 720 500 960 440V640H0V400Z" fill="#88C66A"/>
  <path d="M620 290L670 190L720 290H620Z" fill="#1D5C7F"/>
  <rect x="654" y="292" width="32" height="80" fill="#1D5C7F"/>
  <rect x="280" y="250" width="140" height="110" rx="10" fill="#F2F7FC"/>
  <rect x="290" y="260" width="120" height="70" rx="6" fill="#8ED5FF"/>
  <rect x="315" y="335" width="24" height="25" fill="#9FB2C2"/>
</svg>
